<svg xmlns="http://www.w3.org/2000/svg" width="159.799" height="34.935" viewBox="0 0 159.799 34.935">
  <g id="Group_16207" data-name="Group 16207" transform="translate(-220.999 -54)">
    <rect id="Rectangle_3109" data-name="Rectangle 3109" width="2.401" height="5.04" transform="translate(226.039 62.328) rotate(90)" fill="#9e9e9e"/>
    <rect id="Rectangle_3110" data-name="Rectangle 3110" width="2.401" height="5.025" transform="translate(231.065 59.927) rotate(90)" fill="#fab800"/>
    <path id="Path_6724" data-name="Path 6724" d="M358.235,70.2c0-.046-.009-.15-.016-.264-.011-.153-.024-.323-.031-.385-.269-2.424-1.543-3.567-4.187-3.781-.209-.017-.653-.037-.653-.037h-4.585v2.4h-5.035v2.4h9.963v1.575h4.553v-1.5Z" transform="translate(-112.662 -5.813)" fill="#fff"/>
    <path id="Path_6725" data-name="Path 6725" d="M358.831,82.043v-5.3s-.021-.552-.032-.641a3.547,3.547,0,0,0-2.295-2.888,2.442,2.442,0,0,0-.318-.057c-.168-.024-.581-.042-.581-.042H344.293V69.6h-5.03v4.764l0,.265,0,.138v.021l.01.211c.005.077.014.154.025.229a3.144,3.144,0,0,0,2.637,2.646c.066.01.4.039.4.039h11.629v3.6H351.68l-4.494-.015h-3l-.006-1.549-4.914,0v2.7l.022.405s.061.577.089.686a3.45,3.45,0,0,0,2.817,2.531c.094.015.541.032.541.032h2.79v0h.3v0h10.043s.23-.014.269-.021a3.407,3.407,0,0,0,2.694-3.194c0-.055,0-.111,0-.167Z" transform="translate(-113.228 -4.873)" fill="#fff"/>
    <path id="Path_6726" data-name="Path 6726" d="M467.912,81.372c0,4.05-1.678,5.851-5.683,5.851h-9.916c-3.966,0-5.683-1.8-5.683-5.851V71.554c0-4.05,1.717-5.851,5.683-5.851h9.916c4,0,5.683,1.8,5.683,5.851Zm-5.607-8.264c0-2.128-.38-2.537-2.745-2.537h-4.539c-2.4,0-2.784.409-2.784,2.537v6.71c0,2.127.382,2.536,2.784,2.536h4.539c2.365,0,2.745-.409,2.745-2.536Z" transform="translate(-87.115 -5.821)" fill="#fff"/>
    <path id="Path_6727" data-name="Path 6727" d="M447.726,72.216v0h.025V69.2l-.045-.415a3.491,3.491,0,0,0-2.692-2.793,6.009,6.009,0,0,0-1.86-.285c-.328,0-4.485.021-4.485.021H433.88l-1.211.007c-3.895,0-5.43,1.842-5.43,5.89v4.865h0l0,4.877c0,4.048,1.535,5.892,5.43,5.892l1.211.007h4.789s4.157.02,4.485.02a6.225,6.225,0,0,0,1.619-.208,3.508,3.508,0,0,0,2.933-2.844l.045-.415V80.8h-.025v-.027h-5.057v1.558H441.3l-5.821.016c-2.36,0-2.734-.408-2.734-2.535V76.487h0V73.176c0-2.126.374-2.535,2.734-2.535l5.821.016h1.369v1.559Z" transform="translate(-91.831 -5.821)" fill="#fff"/>
    <path id="Path_6728" data-name="Path 6728" d="M404.153,83.084c-.962-.046-1.327-.4-1.4-1.428h.006v-9.53h5.489V66.847h-5.489V60.988h-.035v-.016H397.45v.016h0v5.859h-2.675v5.277h2.675V82.816c0,3.735,1.484,5.4,4.936,5.532v.014h5.91V83.084Z" transform="translate(-99.727 -6.972)" fill="#fff"/>
    <path id="Path_6729" data-name="Path 6729" d="M428.023,78.466v-1c0-.027.01-.046.01-.075V71.1c0-3.748-1.529-5.4-5.016-5.4h-9.179c-3.7,0-5.3,1.774-5.3,5.764V76.39h-.02v4.983h.02v.071c0,3.991,1.632,5.764,5.4,5.764l10.6-.006c.024,0,.045.006.067.006s.049-.006.075-.006h.219l-.011-.02a3.41,3.41,0,0,0,3.1-2.872l.042-.415V80.876h-4.8v1.559h-1.768l-4.948.014c-2.213,0-2.618-.392-2.642-2.321V78.466Zm-14.26-5.639h0c.016-1.977.4-2.367,2.6-2.367h5.051c.961,0,1.46.4,1.46,1.451v.916h0v1.432h-9.111Z" transform="translate(-96.384 -5.821)" fill="#fff"/>
    <path id="Path_6730" data-name="Path 6730" d="M372.017,66.263l-.558,0h-.051v.813h0V80.148c-.168,1.624-1.106,2.426-3.175,2.426h-2.648c-1.87,0-2.407-.276-2.517-1.584V66.725h0v-.461h-5.143V81.93c0,3.62,1.6,5.229,5.226,5.229H366.7c.055,0,.1,0,.158-.006l3.506-.024h1.074v1.09c0,1.865-.522,2.413-2.612,2.413h-1.608l-3.246-.052-.777-.012V89.116h-4.929v.878l.011.661a4.014,4.014,0,0,0,.144.885,4.3,4.3,0,0,0,3.992,3.068v.012h2.943v0h5.42c3.8,0,5.749-1.975,5.749-5.814V66.263Z" transform="translate(-108.689 -5.685)" fill="#fff"/>
    <path id="Path_6731" data-name="Path 6731" d="M390.264,65.762l-5.473-.026h-8.934v.026h-.032V84.578l0,2.7H381.1V70.593l6.507-.1a8.449,8.449,0,0,1,1.42.091c1.187.209,1.519.828,1.519,2.394l.009,5.957v5.653l-.007,2.682h5.3V85.952a.327.327,0,0,0,0-.034V71.447C395.844,67.511,394.159,65.762,390.264,65.762Z" transform="translate(-104.337 -5.813)" fill="#fff"/>
  </g>
</svg>
